<?xml version="1.0" standalone="no"?>
<!DOCTYPE svg PUBLIC "-//W3C//DTD SVG 20010904//EN"
 "http://www.w3.org/TR/2001/REC-SVG-20010904/DTD/svg10.dtd">
<svg version="1.0" xmlns="http://www.w3.org/2000/svg"
 width="82.000000pt" height="85.000000pt" viewBox="0 0 82.000000 85.000000"
 preserveAspectRatio="xMidYMid meet">

<g transform="translate(0.000000,85.000000) scale(0.100000,-0.100000)"
fill="#000000" stroke="none">
<path d="M531 824 c-25 -18 -40 -22 -60 -16 -46 13 -105 6 -151 -16 -30 -15
-54 -20 -72 -16 -22 4 -28 2 -28 -11 0 -12 -6 -15 -20 -10 -27 9 -25 -10 3
-31 21 -16 21 -16 -25 -10 -46 5 -75 -8 -44 -20 26 -10 19 -22 -30 -50 -30
-18 -42 -30 -35 -37 6 -6 31 1 74 21 78 38 145 62 172 61 11 0 -14 -13 -55
-28 -133 -50 -156 -65 -177 -118 -13 -34 -18 -74 -18 -138 0 -82 3 -97 33
-157 37 -75 104 -142 179 -179 40 -20 63 -24 143 -24 96 1 151 16 205 58 20
16 20 16 -11 47 l-31 32 -44 -22 c-24 -13 -70 -25 -104 -28 -78 -6 -148 23
-204 83 -50 55 -70 102 -74 174 -2 55 -1 56 26 59 32 4 31 25 -1 30 -28 4 -28
11 6 60 34 52 81 87 144 108 26 8 54 25 62 36 10 14 21 18 34 14 14 -5 24 -1
30 11 9 15 13 14 48 -12 65 -49 70 -73 8 -36 -20 12 -43 20 -50 17 -20 -8 1
-67 33 -94 23 -18 38 -22 90 -20 47 2 67 -2 81 -15 35 -32 82 -16 82 29 0 39
-11 55 -50 70 -25 10 -44 28 -60 57 -13 23 -30 46 -37 50 -10 6 -12 18 -8 38
4 19 2 34 -9 44 -18 18 -13 19 -55 -11z m87 -125 c-2 -6 -8 -10 -13 -10 -5 0
-11 4 -13 10 -2 6 4 11 13 11 9 0 15 -5 13 -11z"/>
<path d="M464 436 c-3 -8 -4 -29 -2 -48 l3 -33 98 -3 c108 -3 108 -3 81 -72
-17 -41 -17 -41 12 -71 15 -16 33 -29 40 -29 17 0 53 94 66 172 17 98 17 98
-154 98 -110 0 -140 -3 -144 -14z"/>
</g>
</svg>
